mtllib material.mtl
usemtl 0.000000_0.000000_0.000000_0.000000_0.000000
v -0.03250000 -0.04944260 0.03798600
v -0.03335360 -0.04939910 0.03797020
v -0.03419720 -0.04926910 0.03792290
v -0.03502090 -0.04905420 0.03784460
v -0.03581500 -0.04875690 0.03773640
v -0.03657030 -0.04838060 0.03759950
v -0.03727790 -0.04792980 0.03743540
v -0.03792940 -0.04740980 0.03724610
v -0.03851730 -0.04682660 0.03703380
v -0.03903460 -0.04618710 0.03680110
v -0.03947530 -0.04549880 0.03655060
v -0.03983430 -0.04476970 0.03628520
v -0.04010720 -0.04400850 0.03600810
v -0.04029100 -0.04322400 0.03572260
v -0.04038340 -0.04242540 0.03543190
v -0.04038340 -0.04162210 0.03513950
v -0.04029100 -0.04082350 0.03484890
v -0.04010720 -0.04003900 0.03456330
v -0.03983430 -0.03927770 0.03428630
v -0.03947530 -0.03854870 0.03402090
v -0.03903460 -0.03786030 0.03377040
v -0.03851730 -0.03722080 0.03353760
v -0.03792940 -0.03663770 0.03332540
v -0.03727790 -0.03611760 0.03313610
v -0.03657030 -0.03566680 0.03297200
v -0.03581500 -0.03529050 0.03283510
v -0.03502090 -0.03499320 0.03272680
v -0.03419720 -0.03477830 0.03264860
v -0.03335360 -0.03464830 0.03260130
v -0.03250000 -0.03460480 0.03258550
v 0.03250000 -0.03460480 0.03258550
v 0.03581500 -0.04875690 0.03773640
v 0.03657030 -0.04838060 0.03759950
v 0.03419720 -0.04926910 0.03792290
v 0.03502090 -0.04905420 0.03784460
v 0.03250000 -0.04944260 0.03798600
v 0.03335360 -0.04939910 0.03797020
v 0.04038340 -0.04242540 0.03543190
v 0.03419720 -0.03477830 0.03264860
v 0.03335360 -0.03464830 0.03260130
v 0.03727790 -0.04792980 0.03743540
v 0.03502090 -0.03499320 0.03272680
v 0.03657030 -0.03566680 0.03297200
v 0.03581500 -0.03529050 0.03283510
v 0.03947530 -0.03854870 0.03402090
v 0.03903460 -0.03786030 0.03377040
v 0.03851730 -0.03722080 0.03353760
v 0.03792940 -0.03663770 0.03332540
v 0.04010720 -0.04003900 0.03456330
v 0.03983430 -0.03927770 0.03428630
v 0.04038340 -0.04162210 0.03513950
v 0.03792940 -0.04740980 0.03724610
v 0.03851730 -0.04682660 0.03703380
v 0.03727790 -0.03611760 0.03313610
v 0.04029100 -0.04082350 0.03484890
v 0.04010720 -0.04400850 0.03600810
v 0.04029100 -0.04322400 0.03572260
v 0.03947530 -0.04549880 0.03655060
v 0.03983430 -0.04476970 0.03628520
v 0.03903460 -0.04618710 0.03680110
vn 0.00000000 0.34202000 0.93969300
vn 0.00000000 0.34202000 0.93969300
vn 0.00000000 0.34202000 0.93969300
vn 0.00000000 0.34202000 0.93969300
vn 0.00000000 0.34202000 0.93969300
vn 0.00000000 0.34202000 0.93969300
vn 0.00000000 0.34202000 0.93969300
vn 0.00000000 0.34202000 0.93969300
vn 0.00000000 0.34202000 0.93969300
vn 0.00000000 0.34202000 0.93969300
vn 0.00000000 0.34202000 0.93969300
vn 0.00000000 0.34202000 0.93969300
vn 0.00000000 0.34202000 0.93969300
vn 0.00000000 0.34202000 0.93969300
vn 0.00000000 0.34202000 0.93969300
vn 0.00000000 0.34202000 0.93969300
vn 0.00000000 0.34202000 0.93969300
vn 0.00000000 0.34202000 0.93969300
vn 0.00000000 0.34202000 0.93969300
vn 0.00000000 0.34202000 0.93969300
vn 0.00000000 0.34202000 0.93969300
vn 0.00000000 0.34202000 0.93969300
vn 0.00000000 0.34202000 0.93969300
vn 0.00000000 0.34202000 0.93969300
vn 0.00000000 0.34202000 0.93969300
vn 0.00000000 0.34202000 0.93969300
vn 0.00000000 0.34202000 0.93969300
vn 0.00000000 0.34202000 0.93969300
vn 0.00000000 0.34202000 0.93969300
vn 0.00000000 0.34202000 0.93969300
vn 0.00000000 0.34202000 0.93969300
vn 0.00000000 0.34202000 0.93969300
vn 0.00000000 0.34202000 0.93969300
vn 0.00000000 0.34202000 0.93969300
vn 0.00000000 0.34202000 0.93969300
vn 0.00000000 0.34202000 0.93969300
vn 0.00000000 0.34202000 0.93969300
vn 0.00000000 0.34202000 0.93969300
vn 0.00000000 0.34202000 0.93969300
vn 0.00000000 0.34202000 0.93969300
vn 0.00000000 0.34202000 0.93969300
vn 0.00000000 0.34202000 0.93969300
vn 0.00000000 0.34202000 0.93969300
vn 0.00000000 0.34202000 0.93969300
vn 0.00000000 0.34202000 0.93969300
vn 0.00000000 0.34202000 0.93969300
vn 0.00000000 0.34202000 0.93969300
vn 0.00000000 0.34202000 0.93969300
vn 0.00000000 0.34202000 0.93969300
vn 0.00000000 0.34202000 0.93969300
vn 0.00000000 0.34202000 0.93969300
vn 0.00000000 0.34202000 0.93969300
vn 0.00000000 0.34202000 0.93969300
vn 0.00000000 0.34202000 0.93969300
vn 0.00000000 0.34202000 0.93969300
vn 0.00000000 0.34202000 0.93969300
vn 0.00000000 0.34202000 0.93969300
vn 0.00000000 0.34202000 0.93969300
vn 0.00000000 0.34202000 0.93969300
vn 0.00000000 0.34202000 0.93969300
f 30//30 8//8 7//7
f 27//27 26//26 25//25
f 23//23 30//30 29//29
f 31//31 32//32 33//33
f 31//31 34//34 35//35
f 31//31 36//36 37//37
f 30//30 6//6 5//5
f 30//30 9//9 8//8
f 30//30 11//11 10//10
f 30//30 14//14 13//13
f 30//30 17//17 16//16
f 30//30 19//19 18//18
f 30//30 21//21 20//20
f 25//25 24//24 27//27
f 29//29 28//28 23//23
f 38//38 39//39 40//40
f 33//33 41//41 31//31
f 37//37 34//34 31//31
f 30//30 3//3 2//2
f 5//5 4//4 30//30
f 10//10 9//9 30//30
f 13//13 12//12 30//30
f 16//16 15//15 30//30
f 20//20 19//19 30//30
f 30//30 23//23 22//22
f 28//28 27//27 23//23
f 38//38 42//42 39//39
f 38//38 43//43 44//44
f 45//45 46//46 47//47
f 48//48 49//49 50//50
f 48//48 38//38 51//51
f 31//31 52//52 53//53
f 35//35 32//32 31//31
f 4//4 3//3 30//30
f 12//12 11//11 30//30
f 18//18 17//17 30//30
f 24//24 23//23 27//27
f 44//44 42//42 38//38
f 38//38 48//48 54//54
f 50//50 45//45 48//48
f 51//51 55//55 48//48
f 31//31 56//56 57//57
f 31//31 58//58 59//59
f 41//41 52//52 31//31
f 7//7 6//6 30//30
f 22//22 21//21 30//30
f 54//54 43//43 38//38
f 55//55 49//49 48//48
f 59//59 56//56 31//31
f 53//53 60//60 31//31
f 15//15 14//14 30//30
f 31//31 30//30 1//1
f 47//47 48//48 45//45
f 60//60 58//58 31//31
f 1//1 36//36 31//31
f 57//57 38//38 31//31
f 40//40 31//31 38//38
f 2//2 1//1 30//30

